<mxfile host="app.diagrams.net" modified="2024-03-12T05:43:30.633Z" agent="Mozilla/5.0 (Macintosh; Intel Mac OS X 10_15_7) AppleWebKit/537.36 (KHTML, like Gecko) Chrome/121.0.0.0 Safari/537.36" version="23.1.8" etag="hYoD5cHaYat2BJSsqmAO" type="github">
  <diagram name="Страница — 1" id="CL-4Don66HCWNu_02ovQ">
    <mxGraphModel>
      <root>
        <mxCell id="0" />
        <mxCell id="1" parent="0" />
      </root>
    </mxGraphModel>
  </diagram>
</mxfile>
